<?xml version="1.0" ?><!-- Uploaded to: SVG Repo, www.svgrepo.com, Generator: SVG Repo Mixer Tools -->
<svg width="800px" height="800px" viewBox="0 0 24 24" fill="none" xmlns="http://www.w3.org/2000/svg"><path d="M14.6271 14.82L14.3833 14.3834L14.6271 14.82ZM9.6556 16.5166L10.1488 16.4344L9.6556 16.5166ZM14.3443 16.5166L13.8511 16.4345L14.3443 16.5166ZM12.8261 7.94806C13.0045 7.7373 12.9783 7.42181 12.7675 7.24338C12.5567 7.06496 12.2413 7.09118 12.0628 7.30194L12.8261 7.94806ZM10.2222 10.25L9.84061 9.92694C9.7148 10.0755 9.68671 10.2837 9.76861 10.4603C9.85052 10.637 10.0275 10.75 10.2222 10.75V10.25ZM13.7778 10.25L14.1594 10.5731C14.2852 10.4245 14.3133 10.2163 14.2314 10.0397C14.1495 9.86303 13.9725 9.75 13.7778 9.75V10.25ZM11.1739 12.5519C10.9955 12.7627 11.0217 13.0782 11.2325 13.2566C11.4433 13.435 11.7588 13.4088 11.9372 13.1981L11.1739 12.5519ZM10.6667 18.5C10.3905 18.5 10.1667 18.7239 10.1667 19C10.1667 19.2761 10.3905 19.5 10.6667 19.5V18.5ZM13.3333 19.5C13.6095 19.5 13.8333 19.2761 13.8333 19C13.8333 18.7239 13.6095 18.5 13.3333 18.5V19.5ZM7.16667 10.25C7.16667 7.63404 9.32318 5.5 12 5.5V4.5C8.7858 4.5 6.16667 7.06697 6.16667 10.25H7.16667ZM12 5.5C14.6768 5.5 16.8333 7.63404 16.8333 10.25H17.8333C17.8333 7.06697 15.2142 4.5 12 4.5V5.5ZM16.8333 10.25C16.8333 12.0181 15.85 13.5647 14.3833 14.3834L14.8708 15.2566C16.6361 14.2711 17.8333 12.4005 17.8333 10.25H16.8333ZM14.3833 14.3834C13.6807 14.7756 12.8679 15 12 15V16C13.0423 16 14.0225 15.7301 14.8708 15.2566L14.3833 14.3834ZM12 15C11.1321 15 10.3193 14.7756 9.61666 14.3834L9.12924 15.2566C9.97752 15.7301 10.9577 16 12 16V15ZM9.61666 14.3834C8.15005 13.5647 7.16667 12.0181 7.16667 10.25H6.16667C6.16667 12.4005 7.36394 14.2711 9.12924 15.2566L9.61666 14.3834ZM10.1488 16.4344L9.86615 14.7378L8.87975 14.9021L9.1624 16.5988L10.1488 16.4344ZM14.1339 14.7378L13.8511 16.4345L14.8375 16.5988L15.1203 14.9022L14.1339 14.7378ZM12.0628 7.30194L9.84061 9.92694L10.6038 10.5731L12.8261 7.94806L12.0628 7.30194ZM10.2222 10.75H13.7778V9.75H10.2222V10.75ZM13.3962 9.92694L11.1739 12.5519L11.9372 13.1981L14.1594 10.5731L13.3962 9.92694ZM13.4672 16.75H10.5328V17.75H13.4672V16.75ZM10.6667 19.5H13.3333V18.5H10.6667V19.5ZM13.8511 16.4345C13.8218 16.6107 13.6638 16.75 13.4672 16.75V17.75C14.1413 17.75 14.7259 17.2684 14.8375 16.5988L13.8511 16.4345ZM9.1624 16.5988C9.27396 17.2684 9.85864 17.75 10.5328 17.75V16.75C10.3361 16.75 10.1782 16.6107 10.1488 16.4344L9.1624 16.5988Z" fill="#464455"/></svg>