<?xml version="1.0" ?><!-- Uploaded to: SVG Repo, www.svgrepo.com, Generator: SVG Repo Mixer Tools -->
<svg width="800px" height="800px" viewBox="0 0 24 24" fill="none" xmlns="http://www.w3.org/2000/svg"><path d="M14.627 14.82L14.3833 14.3834L14.627 14.82ZM9.6556 16.5166L9.16239 16.5988L9.6556 16.5166ZM14.3443 16.5166L13.8511 16.4345V16.4345L14.3443 16.5166ZM18.1285 13.8312C17.9317 13.6375 17.6152 13.6399 17.4215 13.8367C17.2277 14.0335 17.2302 14.3501 17.427 14.5438L18.1285 13.8312ZM18.3159 15.4188C18.5127 15.6125 18.8293 15.6101 19.023 15.4133C19.2167 15.2165 19.2142 14.8999 19.0174 14.7062L18.3159 15.4188ZM19.1111 9.75C18.835 9.75 18.6111 9.97386 18.6111 10.25C18.6111 10.5261 18.835 10.75 19.1111 10.75V9.75ZM20 10.75C20.2761 10.75 20.5 10.5261 20.5 10.25C20.5 9.97386 20.2761 9.75 20 9.75V10.75ZM17.8715 5.51867C17.6747 5.71239 17.6722 6.02897 17.8659 6.22576C18.0596 6.42255 18.3762 6.42504 18.573 6.23133L17.8715 5.51867ZM19.4619 5.35633C19.6587 5.16261 19.6612 4.84603 19.4674 4.64924C19.2737 4.45245 18.9571 4.44996 18.7604 4.64367L19.4619 5.35633ZM5.42702 6.23133C5.62381 6.42504 5.94039 6.42255 6.1341 6.22576C6.32782 6.02897 6.32533 5.71239 6.12854 5.51867L5.42702 6.23133ZM5.23965 4.64367C5.04285 4.44996 4.72628 4.45245 4.53256 4.64924C4.33884 4.84603 4.34134 5.16261 4.53813 5.35633L5.23965 4.64367ZM4.88889 10.75C5.16503 10.75 5.38889 10.5261 5.38889 10.25C5.38889 9.97386 5.16503 9.75 4.88889 9.75V10.75ZM4 9.75C3.72386 9.75 3.5 9.97386 3.5 10.25C3.5 10.5261 3.72386 10.75 4 10.75V9.75ZM6.57298 14.5438C6.76977 14.3501 6.77227 14.0335 6.57855 13.8367C6.38483 13.6399 6.06826 13.6375 5.87146 13.8312L6.57298 14.5438ZM4.98257 14.7062C4.78578 14.8999 4.78329 15.2165 4.97701 15.4133C5.17073 15.6101 5.4873 15.6125 5.68409 15.4188L4.98257 14.7062ZM12.8261 7.94806C13.0045 7.7373 12.9783 7.42181 12.7675 7.24338C12.5567 7.06496 12.2413 7.09118 12.0628 7.30194L12.8261 7.94806ZM10.2222 10.25L9.84061 9.92694C9.7148 10.0755 9.68671 10.2837 9.76861 10.4603C9.85051 10.637 10.0275 10.75 10.2222 10.75V10.25ZM13.7778 10.25L14.1594 10.5731C14.2852 10.4245 14.3133 10.2163 14.2314 10.0397C14.1495 9.86303 13.9725 9.75 13.7778 9.75V10.25ZM11.1739 12.5519C10.9955 12.7627 11.0217 13.0782 11.2325 13.2566C11.4433 13.435 11.7587 13.4088 11.9372 13.1981L11.1739 12.5519ZM10.6667 18.5C10.3905 18.5 10.1667 18.7239 10.1667 19C10.1667 19.2761 10.3905 19.5 10.6667 19.5V18.5ZM13.3333 19.5C13.6095 19.5 13.8333 19.2761 13.8333 19C13.8333 18.7239 13.6095 18.5 13.3333 18.5V19.5ZM7.16667 10.25C7.16667 7.63404 9.32317 5.5 12 5.5V4.5C8.78579 4.5 6.16667 7.06697 6.16667 10.25H7.16667ZM12 5.5C14.6768 5.5 16.8333 7.63404 16.8333 10.25H17.8333C17.8333 7.06697 15.2142 4.5 12 4.5V5.5ZM16.8333 10.25C16.8333 12.0181 15.85 13.5647 14.3833 14.3834L14.8708 15.2566C16.6361 14.2711 17.8333 12.4005 17.8333 10.25H16.8333ZM14.3833 14.3834C13.6807 14.7756 12.8679 15 12 15V16C13.0423 16 14.0225 15.7301 14.8708 15.2566L14.3833 14.3834ZM12 15C11.1321 15 10.3193 14.7756 9.61665 14.3834L9.12923 15.2566C9.97752 15.7301 10.9577 16 12 16V15ZM9.61665 14.3834C8.15004 13.5647 7.16667 12.0181 7.16667 10.25H6.16667C6.16667 12.4005 7.36394 14.2711 9.12923 15.2566L9.61665 14.3834ZM10.1488 16.4344L9.86615 14.7378L8.87974 14.9021L9.16239 16.5988L10.1488 16.4344ZM14.1338 14.7378L13.8511 16.4345L14.8375 16.5988L15.1202 14.9022L14.1338 14.7378ZM17.427 14.5438L18.3159 15.4188L19.0174 14.7062L18.1285 13.8312L17.427 14.5438ZM19.1111 10.75H20V9.75H19.1111V10.75ZM18.573 6.23133L19.4619 5.35633L18.7604 4.64367L17.8715 5.51867L18.573 6.23133ZM6.12854 5.51867L5.23965 4.64367L4.53813 5.35633L5.42702 6.23133L6.12854 5.51867ZM4.88889 9.75H4V10.75H4.88889V9.75ZM5.87146 13.8312L4.98257 14.7062L5.68409 15.4188L6.57298 14.5438L5.87146 13.8312ZM12.0628 7.30194L9.84061 9.92694L10.6038 10.5731L12.8261 7.94806L12.0628 7.30194ZM10.2222 10.75H13.7778V9.75H10.2222V10.75ZM13.3962 9.92694L11.1739 12.5519L11.9372 13.1981L14.1594 10.5731L13.3962 9.92694ZM13.4672 16.75H10.5328V17.75H13.4672V16.75ZM10.6667 19.5H13.3333V18.5H10.6667V19.5ZM13.8511 16.4345C13.8218 16.6107 13.6638 16.75 13.4672 16.75V17.75C14.1413 17.75 14.7259 17.2684 14.8375 16.5988L13.8511 16.4345ZM9.16239 16.5988C9.27395 17.2684 9.85863 17.75 10.5328 17.75V16.75C10.3361 16.75 10.1782 16.6107 10.1488 16.4344L9.16239 16.5988Z" fill="#464455"/></svg>