<?xml version="1.0" encoding="UTF-8" standalone="no"?>
<!-- Uploaded to: SVG Repo, www.svgrepo.com, Generator: SVG Repo Mixer Tools -->
<svg width="800px" height="800px" viewBox="0 0 64 64" version="1.1" xmlns="http://www.w3.org/2000/svg" xmlns:xlink="http://www.w3.org/1999/xlink">
    
    <title>cel-snow-globe</title>
    <desc>Created with Sketch.</desc>
    <defs>

</defs>
    <g id="64px-Line" stroke="none" stroke-width="1" fill="none" fill-rule="evenodd">
        <g id="cel-snow-globe">

</g>
        <path d="M31,6 C16.112,6 4,18.112 4,33 C4,39.287 6.158,45.276 10.105,50.09 C7.775,50.515 6,52.55 6,55 L6,59 C6,59.552 6.448,60 7,60 L55,60 C55.552,60 56,59.552 56,59 L56,55 C56,52.55 54.225,50.515 51.895,50.09 C55.842,45.276 58,39.287 58,33 C58,18.112 45.888,6 31,6 L31,6 Z M54,55 L54,58 L8,58 L8,55 C8,53.346 9.346,52 11,52 L12.23,52 C12.233,52 12.236,52.002 12.24,52.002 C12.243,52.002 12.247,52 12.25,52 L49.772,52 L49.785,52 L51,52 C52.654,52 54,53.346 54,55 L54,55 Z M30,44 C30,40.691 32.691,38 36,38 C39.309,38 42,40.691 42,44 C42,47.309 39.309,50 36,50 C32.691,50 30,47.309 30,44 L30,44 Z M32,32 C32,29.794 33.794,28 36,28 C38.206,28 40,29.794 40,32 C40,34.206 38.206,36 36,36 C33.794,36 32,34.206 32,32 L32,32 Z M49.321,50 L41.273,50 C42.94,48.533 43.999,46.39 43.999,44 C43.999,42.222 43.408,40.583 42.423,39.252 L47.303,36 L50,36 C50.552,36 51,35.552 51,35 C51,34.448 50.552,34 50,34 L48,34 L48,32 C48,31.448 47.552,31 47,31 C46.448,31 46,31.448 46,32 L46,34.465 L41.024,37.783 C40.568,37.414 40.068,37.099 39.538,36.836 C41.027,35.743 42,33.985 42,32 C42,28.691 39.309,26 36,26 C32.691,26 30,28.691 30,32 C30,33.985 30.973,35.743 32.463,36.835 C31.933,37.098 31.433,37.413 30.977,37.782 L26,34.465 L26,32 C26,31.448 25.552,31 25,31 C24.448,31 24,31.448 24,32 L24,34 L22,34 C21.448,34 21,34.448 21,35 C21,35.552 21.448,36 22,36 L24.697,36 L29.576,39.252 C28.591,40.583 28,42.222 28,44 C28,46.39 29.059,48.533 30.726,50 L12.678,50 C8.372,45.362 6,39.345 6,33 C6,19.215 17.215,8 31,8 C44.785,8 56,19.215 56,33 C56,39.345 53.628,45.362 49.321,50 L49.321,50 Z" id="Shape" fill="#000000">

</path>
        <path d="M31,12 C20.523,12 12,20.523 12,31 C12,31.552 12.448,32 13,32 C13.552,32 14,31.552 14,31 C14,21.626 21.626,14 31,14 C31.552,14 32,13.552 32,13 C32,12.448 31.552,12 31,12 L31,12 Z" id="Shape" fill="#000000">

</path>
        <circle id="Oval" fill="#000000" cx="14.01" cy="38.01" r="2.01">

</circle>
        <circle id="Oval" fill="#000000" cx="26.01" cy="22.01" r="2.01">

</circle>
        <circle id="Oval" fill="#000000" cx="48.01" cy="24.01" r="2.01">

</circle>
        <circle id="Oval" fill="#000000" cx="22.01" cy="44.01" r="2.01">

</circle>
        <circle id="Oval" fill="#000000" cx="40.01" cy="16.01" r="2.01">

</circle>
    </g>
</svg>