<?xml version="1.0" encoding="UTF-8" standalone="no"?>
<!-- Uploaded to: SVG Repo, www.svgrepo.com, Generator: SVG Repo Mixer Tools -->
<svg width="800px" height="800px" viewBox="0 0 64 64" version="1.1" xmlns="http://www.w3.org/2000/svg" xmlns:xlink="http://www.w3.org/1999/xlink">
    
    <title>cel-reindeer</title>
    <desc>Created with Sketch.</desc>
    <defs>

</defs>
    <g id="64px-Line" stroke="none" stroke-width="1" fill="none" fill-rule="evenodd">
        <g id="cel-reindeer">

</g>
        <path d="M26,49 C26,51.757 28.243,54 31,54 C33.757,54 36,51.757 36,49 C36,46.243 33.757,44 31,44 C28.243,44 26,46.243 26,49 L26,49 Z M31,46 C32.654,46 34,47.346 34,49 C34,50.654 32.654,52 31,52 C29.346,52 28,50.654 28,49 C28,47.346 29.346,46 31,46 L31,46 Z" id="Shape" fill="#000000">

</path>
        <circle id="Oval" fill="#000000" cx="26" cy="34" r="2">

</circle>
        <circle id="Oval" fill="#000000" cx="36" cy="34" r="2">

</circle>
        <path d="M4.741,13.966 L11.576,15.798 C13.074,17.634 14.598,19.245 16.035,20.62 L9.088,20.004 C8.549,19.96 8.053,20.362 8.004,20.912 C7.955,21.462 8.361,21.948 8.912,21.996 L18.505,22.847 C19.009,23.274 19.49,23.668 19.938,24.021 C19.627,24.007 19.313,24 19,24 C12.832,24 8,26.636 8,30 C8,33.189 12.345,35.72 18.085,35.975 C18.471,43.092 20.53,58 31,58 C41.469,58 43.528,43.093 43.914,35.976 C49.638,35.729 54,33.195 54,30 C54,26.636 49.168,24 43,24 C42.687,24 42.373,24.007 42.062,24.021 C42.51,23.667 42.991,23.274 43.495,22.847 L53.088,21.996 C53.639,21.947 54.045,21.462 53.996,20.912 C53.948,20.363 53.454,19.961 52.912,20.004 L45.965,20.62 C47.402,19.245 48.926,17.634 50.424,15.798 L57.259,13.966 C57.792,13.823 58.11,13.275 57.966,12.741 C57.822,12.207 57.276,11.89 56.741,12.034 L52.41,13.195 C53.656,11.443 54.842,9.529 55.892,7.451 C56.141,6.958 55.944,6.356 55.451,6.107 C54.96,5.857 54.356,6.056 54.107,6.548 C52.11,10.5 49.563,13.87 47.068,16.599 L45.961,12.724 C45.809,12.193 45.251,11.887 44.725,12.037 C44.194,12.188 43.886,12.742 44.037,13.273 L45.465,18.273 C41.985,21.761 38.879,23.92 37.885,24.577 C36.085,24.178 33.83,24 31,24 C28.17,24 25.915,24.178 24.113,24.579 C23.119,23.924 20.013,21.768 16.532,18.279 L17.962,13.275 C18.113,12.744 17.806,12.191 17.274,12.039 C16.749,11.888 16.19,12.194 16.038,12.726 L14.93,16.603 C12.437,13.875 9.891,10.506 7.892,6.549 C7.643,6.056 7.04,5.856 6.548,6.108 C6.055,6.357 5.858,6.959 6.107,7.452 C7.157,9.53 8.344,11.444 9.589,13.196 L5.258,12.035 C4.727,11.891 4.177,12.208 4.033,12.742 C3.891,13.274 4.208,13.823 4.741,13.966 L4.741,13.966 Z M43,26 C48.304,26 52,28.108 52,30 C52,31.768 48.772,33.723 43.99,33.972 C43.998,33.589 44,33.262 44,33 C44,29.674 43.282,27.471 41.433,26.073 C41.95,26.03 42.472,26 43,26 L43,26 Z M42,33 C42,36.841 41.47,56 31,56 C20.53,56 20,36.841 20,33 C20,28.133 21.04,26 31,26 C40.96,26 42,28.133 42,33 L42,33 Z M18,33 C18,33.262 18.003,33.59 18.01,33.975 C13.242,33.733 10,31.772 10,30 C10,28.108 13.696,26 19,26 C19.528,26 20.05,26.03 20.567,26.073 C18.718,27.471 18,29.674 18,33 L18,33 Z" id="Shape" fill="#000000">

</path>
    </g>
</svg>