<?xml version="1.0" encoding="UTF-8" standalone="no"?>
<!-- Uploaded to: SVG Repo, www.svgrepo.com, Generator: SVG Repo Mixer Tools -->
<svg width="800px" height="800px" viewBox="0 0 64 64" version="1.1" xmlns="http://www.w3.org/2000/svg" xmlns:xlink="http://www.w3.org/1999/xlink">
    
    <title>clo-server</title>
    <desc>Created with Sketch.</desc>
    <defs>

</defs>
    <g id="64px-Line" stroke="none" stroke-width="1" fill="none" fill-rule="evenodd">
        <g id="clo-server">

</g>
        <path d="M53,6 L11,6 C7.141,6 4,9.14 4,13 C4,16.86 7.141,20 11,20 L53,20 C56.859,20 60,16.86 60,13 C60,9.14 56.859,6 53,6 L53,6 Z M53,18 L11,18 C8.243,18 6,15.757 6,13 C6,10.243 8.243,8 11,8 L53,8 C55.757,8 58,10.243 58,13 C58,15.757 55.757,18 53,18 L53,18 Z" id="Shape" fill="#000000">

</path>
        <path d="M13,10 C11.346,10 10,11.346 10,13 C10,14.654 11.346,16 13,16 C14.654,16 16,14.654 16,13 C16,11.346 14.654,10 13,10 L13,10 Z M13,14 C12.448,14 12,13.551 12,13 C12,12.449 12.448,12 13,12 C13.552,12 14,12.449 14,13 C14,13.551 13.552,14 13,14 L13,14 Z" id="Shape" fill="#000000">

</path>
        <path d="M53,12 L41,12 C40.447,12 40,12.448 40,13 C40,13.552 40.447,14 41,14 L53,14 C53.553,14 54,13.552 54,13 C54,12.448 53.553,12 53,12 L53,12 Z" id="Shape" fill="#000000">

</path>
        <path d="M53,24 L11,24 C7.141,24 4,27.14 4,31 C4,34.859 7.141,38 11,38 L53,38 C56.859,38 60,34.859 60,31 C60,27.14 56.859,24 53,24 L53,24 Z M53,36 L11,36 C8.243,36 6,33.757 6,31 C6,28.243 8.243,26 11,26 L53,26 C55.757,26 58,28.243 58,31 C58,33.757 55.757,36 53,36 L53,36 Z" id="Shape" fill="#000000">

</path>
        <path d="M13,28 C11.346,28 10,29.346 10,31 C10,32.654 11.346,34 13,34 C14.654,34 16,32.654 16,31 C16,29.346 14.654,28 13,28 L13,28 Z M13,32 C12.448,32 12,31.551 12,31 C12,30.449 12.448,30 13,30 C13.552,30 14,30.449 14,31 C14,31.551 13.552,32 13,32 L13,32 Z" id="Shape" fill="#000000">

</path>
        <path d="M53,30 L41,30 C40.447,30 40,30.448 40,31 C40,31.552 40.447,32 41,32 L53,32 C53.553,32 54,31.552 54,31 C54,30.448 53.553,30 53,30 L53,30 Z" id="Shape" fill="#000000">

</path>
        <path d="M53,42 L11,42 C7.141,42 4,45.141 4,49 C4,52.859 7.141,56 11,56 L53,56 C56.859,56 60,52.859 60,49 C60,45.141 56.859,42 53,42 L53,42 Z M53,54 L11,54 C8.243,54 6,51.757 6,49 C6,46.243 8.243,44 11,44 L53,44 C55.757,44 58,46.243 58,49 C58,51.757 55.757,54 53,54 L53,54 Z" id="Shape" fill="#000000">

</path>
        <path d="M13,46 C11.346,46 10,47.346 10,49 C10,50.654 11.346,52 13,52 C14.654,52 16,50.654 16,49 C16,47.346 14.654,46 13,46 L13,46 Z M13,50 C12.448,50 12,49.552 12,49 C12,48.448 12.448,48 13,48 C13.552,48 14,48.448 14,49 C14,49.552 13.552,50 13,50 L13,50 Z" id="Shape" fill="#000000">

</path>
        <path d="M53,48 L41,48 C40.447,48 40,48.447 40,49 C40,49.553 40.447,50 41,50 L53,50 C53.553,50 54,49.553 54,49 C54,48.447 53.553,48 53,48 L53,48 Z" id="Shape" fill="#000000">

</path>
    </g>
</svg>