<?xml version="1.0" encoding="UTF-8" standalone="no"?>
<!-- Uploaded to: SVG Repo, www.svgrepo.com, Generator: SVG Repo Mixer Tools -->
<svg width="800px" height="800px" viewBox="0 0 64 64" version="1.1" xmlns="http://www.w3.org/2000/svg" xmlns:xlink="http://www.w3.org/1999/xlink">
    
    <title>clo-cloud-network-folder</title>
    <desc>Created with Sketch.</desc>
    <defs>

</defs>
    <g id="64px-Line" stroke="none" stroke-width="1" fill="none" fill-rule="evenodd">
        <g id="clo-cloud-network-folder">

</g>
        <path d="M59,52 C59.552,52 60,51.553 60,51 C60,50.447 59.552,50 59,50 L40,50 L40,49 C40,48.447 39.552,48 39,48 L36,48 L36,42 L52,42 C54.206,42 56,40.206 56,38 L56,15 C56,14.448 55.552,14 55,14 L52,14 C52,11.794 50.206,10 48,10 L30,10 C28,10 27.497,9.329 26.8,8.4 C25.998,7.331 25,6 22,6 L12,6 C9.794,6 8,7.794 8,10 L8,38 C8,40.206 9.794,42 12,42 L30,42 L30,48 L27,48 C26.448,48 26,48.447 26,49 L26,50 L5,50 C4.448,50 4,50.447 4,51 C4,51.553 4.448,52 5,52 L26,52 L26,54 L5,54 C4.448,54 4,54.447 4,55 C4,55.553 4.448,56 5,56 L26,56 L26,57 C26,57.553 26.448,58 27,58 L39,58 C39.552,58 40,57.553 40,57 L40,56 L59,56 C59.552,56 60,55.553 60,55 C60,54.447 59.552,54 59,54 L40,54 L40,52 L59,52 L59,52 Z M12,15 L12,40 C10.897,40 10,39.103 10,38 L10,10 C10,8.897 10.897,8 12,8 L22,8 C24,8 24.503,8.671 25.2,9.6 C26.002,10.669 27,12 30,12 L48,12 C49.103,12 50,12.897 50,14 L13,14 C12.448,14 12,14.448 12,15 L12,15 Z M14,16 L54,16 L54,38 C54,39.103 53.103,40 52,40 L14,40 L14,16 L14,16 Z M32,42 L34,42 L34,48 L32,48 L32,42 L32,42 Z M38,56 L28,56 L28,50 L38,50 L38,56 L38,56 Z" id="Shape" fill="#000000">

</path>
        <path d="M46,29.167 C46,25.399 42.81,22.334 38.889,22.334 C38.462,22.334 38.038,22.37 37.622,22.442 C36.531,20.919 34.739,20 32.778,20 C29.86,20 27.431,22.052 26.968,24.736 C24.157,25.162 22,27.51 22,30.333 C22,33.458 24.642,36 27.889,36 L38.889,36 C42.81,36 46,32.935 46,29.167 L46,29.167 Z M24,30.333 C24,28.311 25.745,26.666 27.889,26.666 C28.441,26.666 28.889,26.218 28.889,25.666 C28.889,23.645 30.634,21.999 32.778,21.999 C34.266,21.999 35.601,22.781 36.264,24.039 C36.485,24.457 36.967,24.665 37.422,24.535 C37.894,24.401 38.388,24.333 38.889,24.333 C41.707,24.333 44,26.501 44,29.166 C44,31.831 41.707,34 38.889,34 L27.889,34 C25.745,34 24,32.355 24,30.333 L24,30.333 Z" id="Shape" fill="#000000">

</path>
    </g>
</svg>