<?xml version="1.0" encoding="UTF-8" standalone="no"?>
<!-- Uploaded to: SVG Repo, www.svgrepo.com, Generator: SVG Repo Mixer Tools -->
<svg width="800px" height="800px" viewBox="0 0 64 64" version="1.1" xmlns="http://www.w3.org/2000/svg" xmlns:xlink="http://www.w3.org/1999/xlink">
    
    <title>cle-wash-basin</title>
    <desc>Created with Sketch.</desc>
    <defs>

</defs>
    <g id="64px-Line" stroke="none" stroke-width="1" fill="none" fill-rule="evenodd">
        <g id="cle-wash-basin">

</g>
        <path d="M5,42 L6.279,42 L11.14,56.582 C11.822,58.626 13.728,60 15.883,60 L46.117,60 C48.272,60 50.179,58.626 50.86,56.582 L55.721,42 L57,42 C57.552,42 58,41.552 58,41 L58,39 C58,37.346 56.654,36 55,36 L51.92,36 C51.432,32.613 48.519,30 45,30 C43.394,30 41.849,30.553 40.614,31.545 C39.682,30.572 38.38,30 37,30 C35.91,30 34.858,30.356 34,31 C32.793,30.095 31.163,29.778 29.696,30.173 C28.894,27.753 26.599,26 24,26 C21.332,26 19.022,27.783 18.263,30.243 C17.691,30.083 17.096,30 16.5,30 C13.085,30 10.282,32.649 10.025,36 L7,36 C5.346,36 4,37.346 4,39 L4,41 C4,41.552 4.448,42 5,42 L5,42 Z M48.963,55.949 C48.554,57.176 47.41,58 46.117,58 L15.883,58 C14.59,58 13.446,57.176 13.037,55.949 L8.388,42 L53.613,42 L48.963,55.949 L48.963,55.949 Z M16.5,32 C17.217,32 17.9,32.163 18.533,32.484 C19.078,32.786 19.841,32.461 19.991,31.846 C20.01,31.768 20.019,31.689 20.019,31.612 C20.215,29.581 21.949,28 24,28 C26.024,28 27.771,29.604 27.979,31.651 C28.014,31.99 28.218,32.288 28.522,32.443 C28.827,32.597 29.188,32.586 29.481,32.413 C30.674,31.711 32.321,31.968 33.246,33.011 C33.273,33.042 33.302,33.072 33.333,33.1 C33.726,33.457 34.329,33.446 34.707,33.073 C34.749,33.031 34.788,32.986 34.821,32.939 C35.387,32.341 36.175,32 37.001,32 C38.078,32 39.076,32.581 39.609,33.517 C39.654,33.602 39.713,33.682 39.784,33.753 C40.137,34.106 40.697,34.144 41.095,33.843 C41.169,33.787 41.233,33.722 41.287,33.652 C42.235,32.601 43.585,32 45,32 C47.414,32 49.434,33.721 49.899,36 L12.051,36 C12.303,33.756 14.19,32 16.5,32 L16.5,32 Z M6,39 C6,38.449 6.449,38 7,38 L11.014,38 C11.017,38 11.019,38.001 11.022,38.001 C11.033,38.001 11.044,38 11.056,38 L55,38 C55.551,38 56,38.449 56,39 L56,40 L6,40 L6,39 L6,39 Z" id="Shape" fill="#000000">

</path>
        <path d="M45,6 C41.14,6 38,9.14 38,13 C38,16.86 41.14,20 45,20 C48.86,20 52,16.86 52,13 C52,9.14 48.86,6 45,6 L45,6 Z M45,18 C42.243,18 40,15.757 40,13 C40,10.243 42.243,8 45,8 C47.757,8 50,10.243 50,13 C50,15.757 47.757,18 45,18 L45,18 Z" id="Shape" fill="#000000">

</path>
        <path d="M30,24 C30,26.206 31.794,28 34,28 C36.206,28 38,26.206 38,24 C38,21.794 36.206,20 34,20 C31.794,20 30,21.794 30,24 L30,24 Z M36,24 C36,25.103 35.103,26 34,26 C32.897,26 32,25.103 32,24 C32,22.897 32.897,22 34,22 C35.103,22 36,22.897 36,24 L36,24 Z" id="Shape" fill="#000000">

</path>
        <path d="M45,14 C44.449,14 44,13.551 44,13 C44,12.448 43.552,12 43,12 C42.448,12 42,12.448 42,13 C42,14.654 43.346,16 45,16 C45.552,16 46,15.552 46,15 C46,14.448 45.552,14 45,14 L45,14 Z" id="Shape" fill="#000000">

</path>
        <path d="M14,16 C14,19.309 16.691,22 20,22 C23.309,22 26,19.309 26,16 C26,12.691 23.309,10 20,10 C16.691,10 14,12.691 14,16 L14,16 Z M24,16 C24,18.206 22.206,20 20,20 C17.794,20 16,18.206 16,16 C16,13.794 17.794,12 20,12 C22.206,12 24,13.794 24,16 L24,16 Z" id="Shape" fill="#000000">

</path>
        <path d="M20,16 C20,15.448 19.552,15 19,15 C18.448,15 18,15.448 18,16 C18,17.103 18.897,18 20,18 C20.552,18 21,17.553 21,17 C21,16.447 20.552,16.001 20,16.001 L20,16 L20,16 Z" id="Shape" fill="#000000">

</path>
    </g>
</svg>