<?xml version="1.0" encoding="UTF-8" standalone="no"?>
<!-- Uploaded to: SVG Repo, www.svgrepo.com, Generator: SVG Repo Mixer Tools -->
<svg width="800px" height="800px" viewBox="0 0 64 64" version="1.1" xmlns="http://www.w3.org/2000/svg" xmlns:xlink="http://www.w3.org/1999/xlink">
    
    <title>cle-peg</title>
    <desc>Created with Sketch.</desc>
    <defs>

</defs>
    <g id="64px-Line" stroke="none" stroke-width="1" fill="none" fill-rule="evenodd">
        <g id="cle-peg">

</g>
        <path d="M56.775,19.824 L40.395,23.604 L44.175,7.225 C44.275,6.79 44.075,6.342 43.685,6.125 C43.298,5.91 42.809,5.978 42.494,6.293 L4.578,44.209 C4.189,44.597 3.979,45.136 4.002,45.686 C4.023,46.24 4.278,46.763 4.699,47.122 C6.967,49.055 9.206,49.718 11.212,49.718 C12.648,49.718 13.96,49.376 15.082,48.918 C13.986,51.606 13.564,55.411 16.879,59.302 C17.237,59.724 17.762,59.978 18.316,59.999 C18.341,60 18.367,60.001 18.393,60.001 C18.916,60.001 19.422,59.792 19.79,59.423 L57.707,21.507 C58.022,21.192 58.091,20.705 57.875,20.316 C57.658,19.924 57.213,19.722 56.775,19.824 L56.775,19.824 Z M38.151,24.435 L36.213,26.373 C35.842,26.13 35.447,25.917 35.004,25.778 C32.426,24.971 29.669,26.415 28.862,28.996 C28.528,30.064 28.598,31.154 28.956,32.131 L21.64,29.975 L41.442,10.173 L38.151,24.435 L38.151,24.435 Z M32.676,33.229 C32.244,33.094 31.866,32.856 31.548,32.552 C31.532,32.533 31.526,32.51 31.508,32.492 C31.492,32.476 31.47,32.471 31.453,32.456 C31.267,32.261 31.099,32.049 30.97,31.805 C30.61,31.118 30.539,30.332 30.77,29.593 C31.159,28.352 32.307,27.555 33.543,27.555 C33.829,27.555 34.12,27.598 34.406,27.687 C35.934,28.166 36.789,29.796 36.312,31.325 C36.08,32.065 35.575,32.671 34.887,33.03 C34.202,33.39 33.415,33.459 32.676,33.229 L32.676,33.229 Z M5.992,45.623 L20.03,31.585 L28.503,34.083 L23.757,38.829 C22.946,38.291 21.996,38 21,38 C19.664,38 18.408,38.521 17.465,39.465 C16.521,40.408 16,41.664 16,43 C16,43.969 16.281,44.892 16.792,45.688 C15.128,46.962 10.669,49.586 5.992,45.623 L5.992,45.623 Z M18.879,45.121 C18.312,44.555 18,43.802 18,43 C18,42.198 18.312,41.445 18.879,40.879 C19.446,40.313 20.198,40 21,40 C21.802,40 22.555,40.312 23.121,40.879 C23.687,41.446 24,42.198 24,43 C24,43.802 23.688,44.555 23.121,45.121 C21.988,46.254 20.012,46.254 18.879,45.121 L18.879,45.121 Z M18.4,58.004 C14.417,53.33 17.039,48.87 18.311,47.208 C19.107,47.719 20.03,48 20.999,48 C22.335,48 23.591,47.479 24.534,46.535 C25.478,45.592 25.999,44.336 25.999,43 C25.999,42.004 25.708,41.054 25.17,40.243 L30.687,34.727 L32.094,35.142 C32.099,35.143 32.104,35.143 32.108,35.144 C32.584,35.29 33.064,35.362 33.539,35.362 C35.626,35.362 37.565,34.016 38.221,31.922 L38.221,31.921 C38.674,30.469 38.397,28.974 37.624,27.79 L39.565,25.85 L53.829,22.558 L18.4,58.004 L18.4,58.004 Z" id="Shape" fill="#000000">

</path>
    </g>
</svg>