<?xml version="1.0" encoding="UTF-8" standalone="no"?>
<!-- Uploaded to: SVG Repo, www.svgrepo.com, Generator: SVG Repo Mixer Tools -->
<svg width="800px" height="800px" viewBox="0 0 64 64" version="1.1" xmlns="http://www.w3.org/2000/svg" xmlns:xlink="http://www.w3.org/1999/xlink">
    
    <title>com-laptop-code</title>
    <desc>Created with Sketch.</desc>
    <defs>

</defs>
    <g id="64px-Line" stroke="none" stroke-width="1" fill="none" fill-rule="evenodd">
        <g id="com-laptop-code">

</g>
        <path d="M59,44 L56,44 L56,16 C56,13.794 54.206,12 52,12 L10,12 C7.794,12 6,13.794 6,16 L6,44 L3,44 C2.448,44 2,44.448 2,45 L2,48 C2,50.206 3.794,52 6,52 L56,52 C58.206,52 60,50.206 60,48 L60,45 C60,44.448 59.552,44 59,44 L59,44 Z M8,16 C8,14.897 8.897,14 10,14 L52,14 C53.103,14 54,14.897 54,16 L54,44 L8,44 L8,16 L8,16 Z M58,48 C58,49.103 57.103,50 56,50 L6,50 C4.897,50 4,49.103 4,48 L4,46 L58,46 L58,48 L58,48 Z" id="Shape" fill="#000000">

</path>
        <path d="M51,16 L11,16 C10.448,16 10,16.448 10,17 L10,41 C10,41.552 10.448,42 11,42 L51,42 C51.552,42 52,41.552 52,41 L52,17 C52,16.448 51.552,16 51,16 L51,16 Z M50,40 L12,40 L12,18 L50,18 L50,40 L50,40 Z" id="Shape" fill="#000000">

</path>
        <path d="M24.36,34.768 C24.547,34.924 24.774,35 25,35 C25.287,35 25.571,34.877 25.769,34.64 C26.123,34.216 26.065,33.585 25.641,33.232 L20.562,29 L25.64,24.768 C26.064,24.414 26.121,23.784 25.768,23.36 C25.414,22.936 24.784,22.878 24.36,23.232 L18.36,28.232 C18.132,28.422 18,28.703 18,29 C18,29.297 18.132,29.578 18.36,29.768 L24.36,34.768 L24.36,34.768 Z" id="Shape" fill="#000000">

</path>
        <path d="M36.232,34.64 C36.43,34.877 36.714,35 37.001,35 C37.227,35 37.454,34.924 37.641,34.768 L43.641,29.768 C43.869,29.578 44.001,29.297 44.001,29 C44.001,28.703 43.869,28.422 43.641,28.232 L37.641,23.232 C37.217,22.878 36.586,22.936 36.233,23.36 C35.879,23.784 35.937,24.415 36.361,24.768 L41.439,29 L36.361,33.232 C35.936,33.585 35.878,34.216 36.232,34.64 L36.232,34.64 Z" id="Shape" fill="#000000">

</path>
        <path d="M28.757,37.97 C28.839,37.991 28.92,38 29.001,38 C29.449,38 29.856,37.697 29.97,37.243 L33.97,21.243 C34.104,20.707 33.778,20.164 33.242,20.03 C32.709,19.895 32.164,20.222 32.029,20.758 L28.029,36.758 C27.896,37.293 28.222,37.836 28.757,37.97 L28.757,37.97 Z" id="Shape" fill="#000000">

</path>
    </g>
</svg>