<?xml version="1.0" encoding="UTF-8" standalone="no"?>
<!-- Uploaded to: SVG Repo, www.svgrepo.com, Generator: SVG Repo Mixer Tools -->
<svg width="800px" height="800px" viewBox="0 0 64 64" version="1.1" xmlns="http://www.w3.org/2000/svg" xmlns:xlink="http://www.w3.org/1999/xlink">
    
    <title>des-protractor</title>
    <desc>Created with Sketch.</desc>
    <defs>

</defs>
    <g id="64px-Line" stroke="none" stroke-width="1" fill="none" fill-rule="evenodd">
        <g id="des-protractor">

</g>
        <path d="M31,46 C31.552,46 32,45.552 32,45 L32,42 L37.963,42 L46.094,59.423 C46.261,59.78 46.618,60 47,60 C47.072,60 47.145,59.992 47.217,59.976 C47.675,59.874 48,59.469 48,59 L48,51 C48,50.854 47.968,50.711 47.907,50.579 L43.924,42 L49,42 C49.552,42 50,41.552 50,41 C50,40.448 49.552,40 49,40 L42.995,40 L36.293,25.566 C37.353,24.338 37.999,22.745 37.999,21 C37.999,17.48 35.386,14.567 31.999,14.08 L31.999,7 C31.999,6.448 31.551,6 30.999,6 C30.447,6 29.999,6.448 29.999,7 L29.999,14.08 C26.612,14.567 23.999,17.48 23.999,21 C23.999,22.745 24.645,24.339 25.705,25.566 L19.005,40 L13,40 C12.448,40 12,40.448 12,41 C12,41.552 12.448,42 13,42 L18.076,42 L14.093,50.579 C14.032,50.711 14,50.854 14,51 L14,59 C14,59.469 14.326,59.875 14.783,59.976 C14.856,59.992 14.929,60 15,60 C15.382,60 15.739,59.78 15.906,59.423 L24.037,42 L30,42 L30,45 C30,45.552 30.448,46 31,46 L31,46 Z M46,54.493 L33.43,27.556 C33.883,27.388 34.314,27.175 34.718,26.92 L41.435,41.388 C41.435,41.389 41.436,41.389 41.436,41.39 L46,51.221 L46,54.493 L46,54.493 Z M31,16 C33.757,16 36,18.243 36,21 C36,23.757 33.757,26 31,26 C28.243,26 26,23.757 26,21 C26,18.243 28.243,16 31,16 L31,16 Z M16,51.221 L27.282,26.921 C27.686,27.175 28.116,27.388 28.57,27.557 L16,54.492 L16,51.221 L16,51.221 Z M24.97,40 L30.58,27.979 C30.72,27.988 30.858,28 31,28 C31.142,28 31.28,27.987 31.42,27.979 L37.03,40 L32,40 L32,37 C32,36.448 31.552,36 31,36 C30.448,36 30,36.448 30,37 L30,40 L24.97,40 L24.97,40 Z" id="Shape" fill="#000000">

</path>
    </g>
</svg>